<svg version="1.1" id="Layer_1" xmlns="http://www.w3.org/2000/svg" xmlns:xlink="http://www.w3.org/1999/xlink" x="0px" y="0px"
	 width="100%" viewBox="0 0 4144 1506" enable-background="new 0 0 4144 1506" xml:space="preserve">
<path fill="#000000" opacity="0.000000" stroke="none" 
	d="
M2570.000000,1508.000000 
	C1713.333374,1508.000000 857.666687,1508.000000 2.000000,1508.000000 
	C2.000000,1006.000000 2.000000,504.000000 2.000000,2.000000 
	C1383.333374,2.000000 2764.666748,2.000000 4146.000000,2.000000 
	C4146.000000,504.000000 4146.000000,1006.000000 4146.000000,1508.000000 
	C3621.000000,1508.000000 3096.000000,1508.000000 2570.000000,1508.000000 
M892.479370,748.200745 
	C898.486206,750.096375 904.244873,751.250977 910.816711,749.456604 
	C962.189758,735.430481 1013.656555,721.747192 1065.105225,707.998474 
	C1168.328613,680.413879 1271.561035,652.862854 1374.778564,625.256348 
	C1378.799194,624.180908 1382.704468,622.674133 1387.453491,621.107788 
	C1365.931152,583.282288 1364.711670,545.278687 1383.234985,505.471680 
	C1379.354614,506.311127 1377.150513,506.699066 1374.994019,507.267609 
	C1339.590210,516.601257 1304.175781,525.895142 1268.796265,535.320312 
	C1149.796753,567.022156 1030.801147,598.738647 911.845276,630.602966 
	C905.771118,632.230042 900.264526,632.059326 894.265808,630.403992 
	C819.189819,609.686890 744.066406,589.141357 668.952881,568.560303 
	C544.399475,534.432983 419.843475,500.315094 295.296997,466.162506 
	C292.964355,465.522858 290.736084,464.502808 286.886902,463.078430 
	C291.265167,461.738037 293.780151,460.882416 296.340668,460.196716 
	C367.734253,441.077515 439.120026,421.928894 510.532562,402.880707 
	C644.654968,367.105621 778.801086,331.418945 912.900146,295.556641 
	C918.944275,293.940216 924.448303,293.889374 930.473145,295.617645 
	C950.624146,301.398102 970.912781,306.697723 991.133606,312.236572 
	C1141.356812,353.385376 1291.562988,394.597107 1441.818726,435.627319 
	C1456.541870,439.647766 1471.450439,444.885620 1486.464722,445.615173 
	C1552.097412,448.804291 1596.466919,502.849426 1596.367798,558.571899 
	C1596.364014,560.730835 1596.852295,562.890686 1597.169800,565.538940 
	C1600.785645,564.735107 1603.686890,564.170227 1606.546753,563.442017 
	C1640.397461,554.823425 1674.288452,546.355347 1708.042236,537.371277 
	C1713.657227,535.876770 1719.183960,532.785095 1723.839111,529.234985 
	C1731.590454,523.323425 1737.544678,515.543396 1741.479248,506.560486 
	C1753.908447,478.183868 1754.024536,449.536011 1741.387329,421.345978 
	C1734.158691,405.221008 1722.309692,393.918854 1704.224365,389.295563 
	C1672.963501,381.304169 1641.973511,372.255310 1610.850586,363.720917 
	C1456.777222,321.471588 1302.695068,279.254272 1148.621094,237.007492 
	C1075.111450,216.851334 1001.607361,196.674591 928.123169,176.425903 
	C923.829773,175.242844 919.835022,175.092102 915.495544,176.306793 
	C899.148193,180.882751 882.728943,185.202194 866.327942,189.585663 
	C740.927673,223.101242 615.516968,256.577728 490.126129,290.128601 
	C366.028351,323.333496 241.978867,356.719543 117.827049,389.720795 
	C102.154938,393.886627 91.172989,402.964630 83.739761,416.744751 
	C70.027901,442.164490 68.785759,468.814758 77.078728,496.096924 
	C80.715691,508.061829 86.742546,518.761780 96.124207,527.283264 
	C103.222099,533.730408 111.319702,537.837280 121.159492,538.406677 
	C125.761620,538.672913 130.374802,539.745911 134.855698,540.933350 
	C152.237122,545.539673 169.572281,550.321228 186.915939,555.069336 
	C300.234680,586.092651 413.553497,617.115723 526.867737,648.155579 
	C648.218262,681.396729 769.563843,714.656128 892.479370,748.200745 
M3992.254639,1167.000000 
	C3992.254639,1070.135986 3992.254639,973.272095 3992.254639,876.055542 
	C3933.439453,876.055542 3875.876221,876.055542 3817.576660,876.055542 
	C3811.647217,894.451721 3805.739990,912.779724 3799.832520,931.107910 
	C3793.911133,949.481018 3787.990967,967.854675 3782.067139,986.227112 
	C3776.143066,1004.601501 3770.210449,1022.973145 3764.291748,1041.349365 
	C3758.270996,1060.043823 3752.263672,1078.742676 3746.248047,1097.438843 
	C3740.335938,1115.813843 3734.430908,1134.191040 3728.504150,1152.561279 
	C3722.575439,1170.937256 3716.675781,1189.322632 3710.667969,1207.672607 
	C3704.779297,1225.659302 3699.569092,1243.893555 3690.878662,1261.303833 
	C3647.153320,1132.853760 3603.427979,1004.403687 3559.842773,876.364685 
	C3537.973877,874.472290 3392.845215,875.272400 3385.352051,877.244019 
	C3385.352051,1064.402344 3385.352051,1251.575684 3385.352051,1439.029053 
	C3424.105469,1439.029053 3462.211670,1439.029053 3501.631104,1439.029053 
	C3501.631104,1308.156738 3501.631104,1177.926147 3501.631104,1047.695557 
	C3502.341797,1047.602661 3503.052246,1047.509644 3503.762939,1047.416748 
	C3549.394287,1177.995117 3595.025391,1308.573486 3640.671143,1439.192627 
	C3672.842773,1439.192627 3704.379883,1439.192627 3736.618896,1439.192627 
	C3752.018066,1394.667114 3767.343262,1350.353271 3782.669189,1306.039795 
	C3797.902588,1261.993896 3813.062256,1217.922241 3828.392578,1173.910034 
	C3843.723633,1129.895020 3858.534424,1085.691040 3874.275635,1041.822510 
	C3874.958008,1041.990356 3875.640381,1042.158203 3876.322754,1042.326050 
	C3876.322754,1108.306274 3876.322754,1174.286377 3876.322754,1240.266479 
	C3876.322754,1306.465820 3876.322754,1372.665039 3876.322754,1439.179932 
	C3915.491943,1439.179932 3953.333740,1439.179932 3992.254639,1439.179932 
	C3992.254639,1348.791260 3992.254639,1258.895630 3992.254639,1167.000000 
M1383.030029,839.867065 
	C1372.358887,874.919922 1360.140991,909.419312 1345.685181,943.096741 
	C1310.075684,1026.055908 1264.499390,1102.742188 1202.595703,1169.033325 
	C1160.820068,1213.769897 1113.406616,1251.036499 1057.589355,1276.929688 
	C997.864624,1304.635498 935.302490,1315.829468 869.816101,1307.570679 
	C815.077271,1300.667358 764.828613,1280.962158 718.344604,1251.481689 
	C664.223145,1217.157593 619.305237,1172.925903 580.417480,1122.359741 
	C522.149536,1046.593140 480.477234,962.119324 449.855347,871.916382 
	C430.442749,814.732544 416.359009,756.208374 406.471497,696.679565 
	C405.462952,690.607483 403.064423,688.413513 397.471344,686.956482 
	C376.866913,681.589355 356.413574,675.643921 335.888123,669.971252 
	C319.565216,665.460205 303.219910,661.030029 285.828918,656.275269 
	C286.127045,660.692932 286.113373,664.315979 286.653381,667.854492 
	C289.565308,686.935547 292.436127,706.025757 295.647186,725.057800 
	C309.814911,809.029846 332.429688,890.656006 364.380341,969.619080 
	C397.914337,1052.495117 440.740570,1130.112671 496.422729,1200.316650 
	C547.632446,1264.881836 607.253113,1319.968384 679.211792,1360.904419 
	C742.970642,1397.175781 811.234375,1419.129395 884.661987,1423.558594 
	C966.315918,1428.484009 1043.542603,1411.240234 1116.653564,1375.133911 
	C1193.175415,1337.343384 1256.837402,1283.312012 1311.457031,1218.359863 
	C1390.568726,1124.282715 1444.960205,1016.640503 1483.593018,900.609253 
	C1506.776245,830.979858 1522.685669,759.589294 1533.359985,687.015686 
	C1534.558105,678.868774 1535.356323,670.663086 1536.542480,660.801392 
	C1497.219116,679.276611 1459.773071,677.429993 1422.302246,656.440552 
	C1413.786621,719.092346 1401.161255,779.263611 1383.030029,839.867065 
M3264.429932,1100.448120 
	C3175.600342,1100.448120 3086.770996,1100.448120 2998.036133,1100.448120 
	C2998.036133,1059.458496 2998.036133,1019.965759 2998.036133,979.624329 
	C3096.819580,979.624329 3194.988770,979.624329 3293.743652,979.624329 
	C3293.743652,944.682129 3293.743652,910.595520 3293.743652,876.575928 
	C3277.263916,874.572571 2880.925537,875.301514 2874.265137,877.213379 
	C2874.265137,1064.447998 2874.265137,1251.615967 2874.265137,1439.316650 
	C2876.417236,1439.459473 2878.020752,1439.660278 2879.624268,1439.658936 
	C3019.588623,1439.535889 3159.552979,1439.397583 3299.517334,1439.236450 
	C3299.774902,1439.236206 3300.049805,1438.899780 3300.284668,1438.685181 
	C3300.529785,1438.461670 3300.735840,1438.195435 3300.837646,1438.082642 
	C3300.837646,1404.088013 3300.837646,1370.232056 3300.837646,1335.541382 
	C3199.669678,1335.541382 3099.139648,1335.541382 2998.016113,1335.541382 
	C2998.016113,1289.252563 2998.016113,1243.806763 2998.016113,1197.107910 
	C3088.861816,1197.107910 3179.270996,1197.107910 3270.312012,1197.107910 
	C3270.312012,1179.561157 3270.312256,1163.258301 3270.311768,1146.955444 
	C3270.311279,1133.624146 3270.338135,1120.292847 3270.284912,1106.961792 
	C3270.273438,1104.085083 3270.987061,1100.583496 3264.429932,1100.448120 
M2125.128906,865.850647 
	C2096.988770,861.996033 2068.771973,860.707642 2040.492676,863.952942 
	C2004.022827,868.138184 1969.154175,877.675293 1938.002197,897.718140 
	C1881.907349,933.808838 1855.862915,984.997925 1862.338867,1051.888672 
	C1864.222778,1071.347900 1869.979980,1089.616455 1880.327759,1106.395142 
	C1898.150757,1135.294678 1924.181641,1154.273315 1954.486938,1168.029419 
	C1986.462280,1182.543701 2020.518677,1190.648682 2054.192139,1199.929443 
	C2082.726074,1207.793823 2111.300781,1215.545410 2139.638428,1224.073486 
	C2153.396240,1228.213867 2165.703613,1235.628296 2177.213623,1244.420044 
	C2204.247070,1265.069214 2200.875732,1307.271240 2182.354736,1325.613647 
	C2171.934082,1335.933838 2160.068848,1343.729980 2146.132080,1347.884277 
	C2106.425293,1359.720947 2066.545898,1360.239136 2027.339844,1346.310181 
	C1988.912476,1332.658081 1966.867432,1305.331787 1963.242554,1264.078369 
	C1962.905396,1260.240967 1962.250122,1256.431396 1961.787842,1252.949463 
	C1921.548828,1252.949463 1882.373169,1252.949463 1842.822632,1252.949463 
	C1842.627808,1255.141357 1842.287964,1256.757568 1842.375488,1258.350098 
	C1842.814209,1266.326660 1843.100830,1274.324097 1843.920166,1282.264893 
	C1848.421509,1325.892578 1867.251953,1362.481323 1899.335083,1392.073730 
	C1929.536743,1419.931030 1966.045410,1435.379395 2005.748657,1443.997925 
	C2045.142578,1452.549561 2084.892090,1454.088135 2124.958496,1450.182983 
	C2158.385254,1446.924927 2190.590576,1439.204102 2220.826660,1424.347778 
	C2263.695801,1403.283936 2294.625488,1371.390381 2309.283691,1325.148438 
	C2317.681152,1298.656738 2319.160156,1271.542358 2315.242920,1244.161255 
	C2312.174072,1222.710205 2304.235352,1203.205078 2291.156250,1185.709106 
	C2266.922119,1153.290283 2234.789307,1132.097046 2196.608887,1120.404907 
	C2168.642090,1111.840332 2139.973877,1105.589478 2111.729980,1097.898193 
	C2083.170166,1090.120728 2054.618164,1082.259033 2026.337402,1073.542725 
	C2016.934692,1070.644775 2008.115601,1065.449463 1999.510254,1060.473267 
	C1989.366943,1054.607544 1984.030396,1045.035278 1982.390015,1033.577515 
	C1978.804199,1008.530334 1986.475098,987.954285 2008.151855,974.092468 
	C2015.881714,969.149353 2024.636475,964.934692 2033.504150,962.804321 
	C2063.626953,955.567322 2093.832275,957.158447 2123.220703,966.594299 
	C2154.034912,976.487915 2171.492188,998.389954 2176.396973,1030.344116 
	C2177.044189,1034.559326 2177.829590,1038.753174 2178.561523,1043.017944 
	C2218.473633,1043.017944 2257.949707,1043.017944 2297.610596,1043.017944 
	C2297.610596,1036.743896 2298.136230,1031.066772 2297.495361,1025.524658 
	C2296.351562,1015.632385 2295.164551,1005.661987 2292.834717,996.004272 
	C2282.721680,954.085327 2258.258545,922.394470 2222.329834,899.230286 
	C2193.222412,880.464355 2160.748047,871.208740 2125.128906,865.850647 
M2346.324951,923.000000 
	C2346.324951,941.557922 2346.324951,960.115845 2346.324951,979.742432 
	C2403.209473,979.742432 2458.983887,979.742432 2515.896484,979.742432 
	C2515.896484,1133.530518 2515.896484,1286.232178 2515.896484,1439.135254 
	C2557.535889,1439.135254 2598.019775,1439.135254 2639.634277,1439.135254 
	C2639.634277,1285.891724 2639.634277,1133.182495 2639.634277,979.587341 
	C2696.244385,979.587341 2751.729492,979.587341 2807.688477,979.587341 
	C2807.688477,944.612305 2807.688477,910.530396 2807.688477,876.439026 
	C2653.718994,876.439026 2500.354004,876.439026 2346.324951,876.439026 
	C2346.324951,891.779602 2346.324951,906.389832 2346.324951,923.000000 
M3467.355957,429.558685 
	C3458.108154,402.511261 3448.860596,375.463837 3439.686279,348.630280 
	C3421.664551,346.772003 3341.690186,347.533569 3335.153076,349.486725 
	C3335.153076,461.669220 3335.153076,573.768677 3335.153076,685.859741 
	C3358.413574,685.859741 3380.947754,685.859741 3404.584717,685.859741 
	C3404.584717,608.142029 3404.584717,530.898438 3404.584717,453.654846 
	C3405.273193,453.544312 3405.961670,453.433777 3406.650146,453.323273 
	C3433.796631,530.974609 3460.943115,608.625977 3487.928223,685.816223 
	C3507.956543,685.816223 3526.831055,685.816223 3545.779541,685.816223 
	C3573.058105,607.504822 3600.182861,529.634521 3627.331055,451.772430 
	C3627.409424,451.547455 3627.821289,451.347015 3628.101074,451.308563 
	C3628.411621,451.265930 3628.749268,451.422852 3629.942383,451.679169 
	C3629.942383,529.583984 3629.942383,607.678223 3629.942383,685.691345 
	C3650.781006,687.432983 3691.986328,686.785522 3699.448730,684.555420 
	C3699.448486,572.591797 3699.449219,460.492462 3699.448242,348.483917 
	C3663.424561,348.483917 3628.903564,348.483917 3594.206543,348.483917 
	C3569.317383,425.754913 3544.573242,502.575684 3519.070312,581.752441 
	C3501.448242,529.911804 3484.647461,480.487549 3467.355957,429.558685 
M2982.140869,575.005493 
	C2982.205078,565.677002 2981.968750,556.334229 2982.410156,547.023621 
	C2982.963135,535.364868 2984.595947,523.885437 2989.415527,513.016235 
	C2994.799561,500.872803 3003.841309,493.095978 3016.637695,490.204315 
	C3023.067627,488.751343 3029.831299,488.027710 3036.419922,488.160553 
	C3057.523682,488.586151 3069.393799,497.919403 3073.763916,518.574646 
	C3076.019287,529.234192 3076.860840,540.348328 3076.994873,551.273621 
	C3077.510498,593.206299 3077.474121,635.145752 3077.670410,677.082520 
	C3077.684082,679.969849 3077.921875,682.856140 3078.051025,685.652710 
	C3100.499023,685.652710 3122.259033,685.652710 3144.122070,685.652710 
	C3144.217041,683.661377 3144.333984,682.350952 3144.334229,681.040588 
	C3144.343262,630.725891 3144.473145,580.410522 3144.229004,530.096985 
	C3144.180664,520.153015 3143.304932,510.117828 3141.741211,500.294922 
	C3137.572266,474.104797 3125.480469,453.331177 3099.971436,442.363373 
	C3086.236572,436.458038 3071.691406,434.474609 3056.999268,434.711670 
	C3028.454834,435.172241 3004.518799,445.575439 2987.341309,469.301819 
	C2986.190918,470.890747 2984.565918,472.135956 2981.548340,475.155548 
	C2981.548340,431.342133 2981.548340,389.874756 2981.548340,348.535400 
	C2958.800781,348.535400 2936.975098,348.535400 2914.892090,348.535400 
	C2914.892090,461.264282 2914.892090,573.384338 2914.892090,685.600220 
	C2937.486328,685.600220 2959.559326,685.600220 2982.141357,685.600220 
	C2982.141357,648.908691 2982.141357,612.956116 2982.140869,575.005493 
M2503.949951,535.565125 
	C2491.501465,537.699158 2479.041992,539.771423 2466.607178,541.981873 
	C2448.281494,545.239380 2429.877441,548.150452 2411.692139,552.068115 
	C2399.876221,554.613586 2389.212402,560.267029 2380.174072,568.545532 
	C2364.520996,582.882935 2359.478760,601.165771 2359.830078,621.762146 
	C2360.430176,656.919434 2381.338135,682.543701 2415.718018,689.843933 
	C2430.893799,693.066345 2446.212891,693.188538 2461.465820,691.576538 
	C2484.072021,689.187439 2505.051270,682.300110 2522.264160,666.522888 
	C2523.094971,665.761292 2524.315918,665.425232 2525.286133,664.926575 
	C2526.944824,672.212158 2528.483643,678.970642 2530.074463,685.958374 
	C2552.926025,685.958374 2575.165771,685.958374 2597.292725,685.958374 
	C2595.546631,678.241699 2593.177734,670.906555 2592.355469,663.401978 
	C2591.124756,652.167542 2590.525635,640.816711 2590.456787,629.510620 
	C2590.201172,587.532288 2590.074463,545.550903 2590.296631,503.572754 
	C2590.425537,479.157410 2579.567627,461.359070 2558.728271,449.690399 
	C2551.272217,445.515503 2542.991699,442.198578 2534.674805,440.284790 
	C2503.795898,433.179291 2472.617188,432.459259 2441.503418,438.814728 
	C2419.847900,443.238220 2400.371826,452.043182 2385.511963,469.224274 
	C2374.000000,482.534454 2368.270996,497.913513 2367.835938,515.648193 
	C2390.613281,515.648193 2412.722168,515.648193 2434.902832,515.648193 
	C2435.300049,513.717407 2435.617920,512.444763 2435.818848,511.154022 
	C2438.451416,494.249481 2448.410400,483.952911 2465.064453,481.584015 
	C2475.137207,480.151276 2485.727295,479.997833 2495.794434,481.381989 
	C2515.604492,484.105743 2524.428223,496.620514 2522.593018,516.444885 
	C2522.023926,522.592773 2519.397705,527.254089 2514.281006,530.442932 
	C2511.474854,532.191711 2508.372803,533.465881 2503.949951,535.565125 
M2257.868896,443.044067 
	C2245.468750,437.690674 2232.315186,435.666077 2219.007080,434.850372 
	C2166.961426,431.660278 2122.251953,458.537231 2101.505859,499.097687 
	C2086.181885,529.057556 2082.897705,560.749268 2088.831299,593.317993 
	C2095.263916,628.626221 2111.812012,658.428040 2144.205566,675.889038 
	C2187.217773,699.073669 2231.835693,699.072632 2275.518311,677.671448 
	C2302.858643,664.276794 2316.833984,639.449219 2326.045654,610.764893 
	C2305.808594,610.764893 2286.585205,610.764893 2267.555420,610.764893 
	C2259.383057,624.740601 2251.154053,632.812439 2238.673584,637.554443 
	C2219.751709,644.743835 2200.688965,644.221924 2182.332031,635.798828 
	C2163.508301,627.161682 2151.408936,601.763245 2155.400879,580.071594 
	C2213.443848,580.071594 2271.626221,580.071594 2330.175537,580.071594 
	C2332.053955,560.939758 2330.377441,542.757507 2325.556885,524.999512 
	C2315.557617,488.162354 2295.319580,459.417358 2257.868896,443.044067 
M3934.891846,677.945496 
	C3961.704102,663.315247 3976.136475,639.551575 3985.380615,610.853394 
	C3965.012207,610.853394 3945.816162,610.853394 3926.540283,610.853394 
	C3922.562988,619.984131 3916.136963,626.613098 3908.316895,631.998230 
	C3889.250732,645.127991 3856.419678,645.933960 3837.081543,633.222595 
	C3818.337402,620.901184 3814.355713,601.768127 3813.436279,579.969849 
	C3872.706787,579.969849 3931.145752,579.969849 3990.001221,579.969849 
	C3990.001221,571.225708 3990.376953,563.578613 3989.926270,555.980469 
	C3988.853516,537.897400 3985.210938,520.266602 3977.649414,503.767242 
	C3958.922363,462.905823 3927.864746,438.749390 3882.265625,435.341034 
	C3833.480713,431.694641 3793.171631,448.234283 3766.613281,489.944946 
	C3739.403564,532.678528 3738.978516,578.758179 3758.143555,624.890991 
	C3770.095947,653.662354 3791.421875,673.919128 3820.948486,684.093933 
	C3858.994141,697.204285 3896.793945,696.285645 3934.891846,677.945496 
M1857.072632,410.337158 
	C1885.316162,410.337158 1913.559692,410.337158 1942.839844,410.337158 
	C1942.839844,502.605804 1942.839844,594.023193 1942.839844,685.648193 
	C1968.294800,685.648193 1992.698364,685.648193 2018.112549,685.648193 
	C2018.112549,593.591370 2018.112549,502.219116 2018.112549,409.962891 
	C2052.247314,409.962891 2085.371826,409.962891 2118.606445,409.962891 
	C2118.606445,388.897186 2118.606445,368.731598 2118.606445,348.391602 
	C2026.226440,348.391602 1934.436157,348.391602 1842.450562,348.391602 
	C1842.450562,369.251892 1842.450562,389.640594 1842.450562,410.337158 
	C1847.131836,410.337158 1851.110596,410.337158 1857.072632,410.337158 
M2703.522705,681.669739 
	C2731.043945,693.643738 2759.786133,695.463928 2788.735352,689.766602 
	C2831.668701,681.317017 2860.289795,656.202759 2872.255127,613.449463 
	C2874.094971,606.875793 2875.197266,600.095703 2876.775635,592.787415 
	C2854.446045,592.787415 2833.530518,592.787415 2811.946045,592.787415 
	C2811.186523,595.931396 2810.535889,599.158630 2809.623535,602.310303 
	C2805.307373,617.223938 2797.969238,630.045593 2783.456299,637.163879 
	C2756.425781,650.421875 2724.715820,640.122070 2712.345215,612.658569 
	C2698.106445,581.047974 2698.093750,548.404663 2712.432129,516.775879 
	C2724.210205,490.795624 2747.474609,480.950439 2775.368896,487.576233 
	C2790.675293,491.211914 2800.557861,500.441986 2805.802490,514.971436 
	C2807.243652,518.964294 2808.294922,523.097778 2809.516113,527.136536 
	C2831.568604,527.136536 2853.078369,527.136536 2874.985840,527.136536 
	C2874.829346,524.627930 2874.818359,522.667053 2874.562744,520.738647 
	C2874.125488,517.442200 2873.736572,514.118652 2872.977051,510.888855 
	C2864.648682,475.483826 2841.330322,453.966553 2808.106445,442.357635 
	C2786.099365,434.667969 2763.240479,432.789734 2740.086914,435.935913 
	C2700.546387,441.308777 2670.278809,460.571411 2651.097656,496.045929 
	C2639.929932,516.700134 2635.126465,539.156494 2634.869873,562.362183 
	C2634.290283,614.769714 2653.345947,656.417419 2703.522705,681.669739 
M1430.321655,555.531128 
	C1430.320435,557.196472 1430.355347,558.862671 1430.312500,560.526978 
	C1429.631958,586.967834 1450.473022,611.240967 1479.568848,613.700500 
	C1514.604980,616.662231 1543.095825,583.118103 1535.425903,548.059082 
	C1528.935791,518.393799 1499.184570,499.753235 1470.123535,507.711823 
	C1446.802490,514.098511 1433.949585,530.088135 1430.321655,555.531128 
z"/>
<path fill="#3FAEF2" opacity="1.000000" stroke="none" 
	d="
M891.695435,748.054138 
	C769.563843,714.656128 648.218262,681.396729 526.867737,648.155579 
	C413.553497,617.115723 300.234680,586.092651 186.915939,555.069336 
	C169.572281,550.321228 152.237122,545.539673 134.855698,540.933350 
	C130.374802,539.745911 125.761620,538.672913 121.159492,538.406677 
	C111.319702,537.837280 103.222099,533.730408 96.124207,527.283264 
	C86.742546,518.761780 80.715691,508.061829 77.078728,496.096924 
	C68.785759,468.814758 70.027901,442.164490 83.739761,416.744751 
	C91.172989,402.964630 102.154938,393.886627 117.827049,389.720795 
	C241.978867,356.719543 366.028351,323.333496 490.126129,290.128601 
	C615.516968,256.577728 740.927673,223.101242 866.327942,189.585663 
	C882.728943,185.202194 899.148193,180.882751 915.495544,176.306793 
	C919.835022,175.092102 923.829773,175.242844 928.123169,176.425903 
	C1001.607361,196.674591 1075.111450,216.851334 1148.621094,237.007492 
	C1302.695068,279.254272 1456.777222,321.471588 1610.850586,363.720917 
	C1641.973511,372.255310 1672.963501,381.304169 1704.224365,389.295563 
	C1722.309692,393.918854 1734.158691,405.221008 1741.387329,421.345978 
	C1754.024536,449.536011 1753.908447,478.183868 1741.479248,506.560486 
	C1737.544678,515.543396 1731.590454,523.323425 1723.839111,529.234985 
	C1719.183960,532.785095 1713.657227,535.876770 1708.042236,537.371277 
	C1674.288452,546.355347 1640.397461,554.823425 1606.546753,563.442017 
	C1603.686890,564.170227 1600.785645,564.735107 1597.169800,565.538940 
	C1596.852295,562.890686 1596.364014,560.730835 1596.367798,558.571899 
	C1596.466919,502.849426 1552.097412,448.804291 1486.464722,445.615173 
	C1471.450439,444.885620 1456.541870,439.647766 1441.818726,435.627319 
	C1291.562988,394.597107 1141.356812,353.385376 991.133606,312.236572 
	C970.912781,306.697723 950.624146,301.398102 930.473145,295.617645 
	C924.448303,293.889374 918.944275,293.940216 912.900146,295.556641 
	C778.801086,331.418945 644.654968,367.105621 510.532562,402.880707 
	C439.120026,421.928894 367.734253,441.077515 296.340668,460.196716 
	C293.780151,460.882416 291.265167,461.738037 286.886902,463.078430 
	C290.736084,464.502808 292.964355,465.522858 295.296997,466.162506 
	C419.843475,500.315094 544.399475,534.432983 668.952881,568.560303 
	C744.066406,589.141357 819.189819,609.686890 894.265808,630.403992 
	C900.264526,632.059326 905.771118,632.230042 911.845276,630.602966 
	C1030.801147,598.738647 1149.796753,567.022156 1268.796265,535.320312 
	C1304.175781,525.895142 1339.590210,516.601257 1374.994019,507.267609 
	C1377.150513,506.699066 1379.354614,506.311127 1383.234985,505.471680 
	C1364.711670,545.278687 1365.931152,583.282288 1387.453491,621.107788 
	C1382.704468,622.674133 1378.799194,624.180908 1374.778564,625.256348 
	C1271.561035,652.862854 1168.328613,680.413879 1065.105225,707.998474 
	C1013.656555,721.747192 962.189758,735.430481 910.816711,749.456604 
	C904.244873,751.250977 898.486206,750.096375 891.695435,748.054138 
z"/>
<path fill="#3FAEF2" opacity="1.000000" stroke="none" 
	d="
M3992.254639,1168.000000 
	C3992.254639,1258.895630 3992.254639,1348.791260 3992.254639,1439.179932 
	C3953.333740,1439.179932 3915.491943,1439.179932 3876.322754,1439.179932 
	C3876.322754,1372.665039 3876.322754,1306.465820 3876.322754,1240.266479 
	C3876.322754,1174.286377 3876.322754,1108.306274 3876.322754,1042.326050 
	C3875.640381,1042.158203 3874.958008,1041.990356 3874.275635,1041.822510 
	C3858.534424,1085.691040 3843.723633,1129.895020 3828.392578,1173.910034 
	C3813.062256,1217.922241 3797.902588,1261.993896 3782.669189,1306.039795 
	C3767.343262,1350.353271 3752.018066,1394.667114 3736.618896,1439.192627 
	C3704.379883,1439.192627 3672.842773,1439.192627 3640.671143,1439.192627 
	C3595.025391,1308.573486 3549.394287,1177.995117 3503.762939,1047.416748 
	C3503.052246,1047.509644 3502.341797,1047.602661 3501.631104,1047.695557 
	C3501.631104,1177.926147 3501.631104,1308.156738 3501.631104,1439.029053 
	C3462.211670,1439.029053 3424.105469,1439.029053 3385.352051,1439.029053 
	C3385.352051,1251.575684 3385.352051,1064.402344 3385.352051,877.244019 
	C3392.845215,875.272400 3537.973877,874.472290 3559.842773,876.364685 
	C3603.427979,1004.403687 3647.153320,1132.853760 3690.878662,1261.303833 
	C3699.569092,1243.893555 3704.779297,1225.659302 3710.667969,1207.672607 
	C3716.675781,1189.322632 3722.575439,1170.937256 3728.504150,1152.561279 
	C3734.430908,1134.191040 3740.335938,1115.813843 3746.248047,1097.438843 
	C3752.263672,1078.742676 3758.270996,1060.043823 3764.291748,1041.349365 
	C3770.210449,1022.973145 3776.143066,1004.601501 3782.067139,986.227112 
	C3787.990967,967.854675 3793.911133,949.481018 3799.832520,931.107910 
	C3805.739990,912.779724 3811.647217,894.451721 3817.576660,876.055542 
	C3875.876221,876.055542 3933.439453,876.055542 3992.254639,876.055542 
	C3992.254639,973.272095 3992.254639,1070.135986 3992.254639,1168.000000 
z"/>
<path fill="#3FAEF2" opacity="1.000000" stroke="none" 
	d="
M1383.293823,839.106384 
	C1401.161255,779.263611 1413.786621,719.092346 1422.302246,656.440552 
	C1459.773071,677.429993 1497.219116,679.276611 1536.542480,660.801392 
	C1535.356323,670.663086 1534.558105,678.868774 1533.359985,687.015686 
	C1522.685669,759.589294 1506.776245,830.979858 1483.593018,900.609253 
	C1444.960205,1016.640503 1390.568726,1124.282715 1311.457031,1218.359863 
	C1256.837402,1283.312012 1193.175415,1337.343384 1116.653564,1375.133911 
	C1043.542603,1411.240234 966.315918,1428.484009 884.661987,1423.558594 
	C811.234375,1419.129395 742.970642,1397.175781 679.211792,1360.904419 
	C607.253113,1319.968384 547.632446,1264.881836 496.422729,1200.316650 
	C440.740570,1130.112671 397.914337,1052.495117 364.380341,969.619080 
	C332.429688,890.656006 309.814911,809.029846 295.647186,725.057800 
	C292.436127,706.025757 289.565308,686.935547 286.653381,667.854492 
	C286.113373,664.315979 286.127045,660.692932 285.828918,656.275269 
	C303.219910,661.030029 319.565216,665.460205 335.888123,669.971252 
	C356.413574,675.643921 376.866913,681.589355 397.471344,686.956482 
	C403.064423,688.413513 405.462952,690.607483 406.471497,696.679565 
	C416.359009,756.208374 430.442749,814.732544 449.855347,871.916382 
	C480.477234,962.119324 522.149536,1046.593140 580.417480,1122.359741 
	C619.305237,1172.925903 664.223145,1217.157593 718.344604,1251.481689 
	C764.828613,1280.962158 815.077271,1300.667358 869.816101,1307.570679 
	C935.302490,1315.829468 997.864624,1304.635498 1057.589355,1276.929688 
	C1113.406616,1251.036499 1160.820068,1213.769897 1202.595703,1169.033325 
	C1264.499390,1102.742188 1310.075684,1026.055908 1345.685181,943.096741 
	C1360.140991,909.419312 1372.358887,874.919922 1383.293823,839.106384 
z"/>
<path fill="#3FAEF2" opacity="1.000000" stroke="none" 
	d="
M3265.373047,1100.464478 
	C3270.987061,1100.583496 3270.273438,1104.085083 3270.284912,1106.961792 
	C3270.338135,1120.292847 3270.311279,1133.624146 3270.311768,1146.955444 
	C3270.312256,1163.258301 3270.312012,1179.561157 3270.312012,1197.107910 
	C3179.270996,1197.107910 3088.861816,1197.107910 2998.016113,1197.107910 
	C2998.016113,1243.806763 2998.016113,1289.252563 2998.016113,1335.541382 
	C3099.139648,1335.541382 3199.669678,1335.541382 3300.837646,1335.541382 
	C3300.837646,1370.232056 3300.837646,1404.088013 3300.837646,1438.082642 
	C3300.735840,1438.195435 3300.529785,1438.461670 3300.284668,1438.685181 
	C3300.049805,1438.899780 3299.774902,1439.236206 3299.517334,1439.236450 
	C3159.552979,1439.397583 3019.588623,1439.535889 2879.624268,1439.658936 
	C2878.020752,1439.660278 2876.417236,1439.459473 2874.265137,1439.316650 
	C2874.265137,1251.615967 2874.265137,1064.447998 2874.265137,877.213379 
	C2880.925537,875.301514 3277.263916,874.572571 3293.743652,876.575928 
	C3293.743652,910.595520 3293.743652,944.682129 3293.743652,979.624329 
	C3194.988770,979.624329 3096.819580,979.624329 2998.036133,979.624329 
	C2998.036133,1019.965759 2998.036133,1059.458496 2998.036133,1100.448120 
	C3086.770996,1100.448120 3175.600342,1100.448120 3265.373047,1100.464478 
z"/>
<path fill="#3FAEF2" opacity="1.000000" stroke="none" 
	d="
M2126.010254,865.925293 
	C2160.748047,871.208740 2193.222412,880.464355 2222.329834,899.230286 
	C2258.258545,922.394470 2282.721680,954.085327 2292.834717,996.004272 
	C2295.164551,1005.661987 2296.351562,1015.632385 2297.495361,1025.524658 
	C2298.136230,1031.066772 2297.610596,1036.743896 2297.610596,1043.017944 
	C2257.949707,1043.017944 2218.473633,1043.017944 2178.561523,1043.017944 
	C2177.829590,1038.753174 2177.044189,1034.559326 2176.396973,1030.344116 
	C2171.492188,998.389954 2154.034912,976.487915 2123.220703,966.594299 
	C2093.832275,957.158447 2063.626953,955.567322 2033.504150,962.804321 
	C2024.636475,964.934692 2015.881714,969.149353 2008.151855,974.092468 
	C1986.475098,987.954285 1978.804199,1008.530334 1982.390015,1033.577515 
	C1984.030396,1045.035278 1989.366943,1054.607544 1999.510254,1060.473267 
	C2008.115601,1065.449463 2016.934692,1070.644775 2026.337402,1073.542725 
	C2054.618164,1082.259033 2083.170166,1090.120728 2111.729980,1097.898193 
	C2139.973877,1105.589478 2168.642090,1111.840332 2196.608887,1120.404907 
	C2234.789307,1132.097046 2266.922119,1153.290283 2291.156250,1185.709106 
	C2304.235352,1203.205078 2312.174072,1222.710205 2315.242920,1244.161255 
	C2319.160156,1271.542358 2317.681152,1298.656738 2309.283691,1325.148438 
	C2294.625488,1371.390381 2263.695801,1403.283936 2220.826660,1424.347778 
	C2190.590576,1439.204102 2158.385254,1446.924927 2124.958496,1450.182983 
	C2084.892090,1454.088135 2045.142578,1452.549561 2005.748657,1443.997925 
	C1966.045410,1435.379395 1929.536743,1419.931030 1899.335083,1392.073730 
	C1867.251953,1362.481323 1848.421509,1325.892578 1843.920166,1282.264893 
	C1843.100830,1274.324097 1842.814209,1266.326660 1842.375488,1258.350098 
	C1842.287964,1256.757568 1842.627808,1255.141357 1842.822632,1252.949463 
	C1882.373169,1252.949463 1921.548828,1252.949463 1961.787842,1252.949463 
	C1962.250122,1256.431396 1962.905396,1260.240967 1963.242554,1264.078369 
	C1966.867432,1305.331787 1988.912476,1332.658081 2027.339844,1346.310181 
	C2066.545898,1360.239136 2106.425293,1359.720947 2146.132080,1347.884277 
	C2160.068848,1343.729980 2171.934082,1335.933838 2182.354736,1325.613647 
	C2200.875732,1307.271240 2204.247070,1265.069214 2177.213623,1244.420044 
	C2165.703613,1235.628296 2153.396240,1228.213867 2139.638428,1224.073486 
	C2111.300781,1215.545410 2082.726074,1207.793823 2054.192139,1199.929443 
	C2020.518677,1190.648682 1986.462280,1182.543701 1954.486938,1168.029419 
	C1924.181641,1154.273315 1898.150757,1135.294678 1880.327759,1106.395142 
	C1869.979980,1089.616455 1864.222778,1071.347900 1862.338867,1051.888672 
	C1855.862915,984.997925 1881.907349,933.808838 1938.002197,897.718140 
	C1969.154175,877.675293 2004.022827,868.138184 2040.492676,863.952942 
	C2068.771973,860.707642 2096.988770,861.996033 2126.010254,865.925293 
z"/>
<path fill="#3FAEF3" opacity="1.000000" stroke="none" 
	d="
M2346.324951,922.000000 
	C2346.324951,906.389832 2346.324951,891.779602 2346.324951,876.439026 
	C2500.354004,876.439026 2653.718994,876.439026 2807.688477,876.439026 
	C2807.688477,910.530396 2807.688477,944.612305 2807.688477,979.587341 
	C2751.729492,979.587341 2696.244385,979.587341 2639.634277,979.587341 
	C2639.634277,1133.182495 2639.634277,1285.891724 2639.634277,1439.135254 
	C2598.019775,1439.135254 2557.535889,1439.135254 2515.896484,1439.135254 
	C2515.896484,1286.232178 2515.896484,1133.530518 2515.896484,979.742432 
	C2458.983887,979.742432 2403.209473,979.742432 2346.324951,979.742432 
	C2346.324951,960.115845 2346.324951,941.557922 2346.324951,922.000000 
z"/>
<path fill="#F3F4F4" opacity="1.000000" stroke="none" 
	d="
M3467.601318,430.311005 
	C3484.647461,480.487549 3501.448242,529.911804 3519.070312,581.752441 
	C3544.573242,502.575684 3569.317383,425.754913 3594.206543,348.483917 
	C3628.903564,348.483917 3663.424561,348.483917 3699.448242,348.483917 
	C3699.449219,460.492462 3699.448486,572.591797 3699.448730,684.555420 
	C3691.986328,686.785522 3650.781006,687.432983 3629.942383,685.691345 
	C3629.942383,607.678223 3629.942383,529.583984 3629.942383,451.679169 
	C3628.749268,451.422852 3628.411621,451.265930 3628.101074,451.308563 
	C3627.821289,451.347015 3627.409424,451.547455 3627.331055,451.772430 
	C3600.182861,529.634521 3573.058105,607.504822 3545.779541,685.816223 
	C3526.831055,685.816223 3507.956543,685.816223 3487.928223,685.816223 
	C3460.943115,608.625977 3433.796631,530.974609 3406.650146,453.323273 
	C3405.961670,453.433777 3405.273193,453.544312 3404.584717,453.654846 
	C3404.584717,530.898438 3404.584717,608.142029 3404.584717,685.859741 
	C3380.947754,685.859741 3358.413574,685.859741 3335.153076,685.859741 
	C3335.153076,573.768677 3335.153076,461.669220 3335.153076,349.486725 
	C3341.690186,347.533569 3421.664551,346.772003 3439.686279,348.630280 
	C3448.860596,375.463837 3458.108154,402.511261 3467.601318,430.311005 
z"/>
<path fill="#F3F4F4" opacity="1.000000" stroke="none" 
	d="
M2982.141113,576.004517 
	C2982.141357,612.956116 2982.141357,648.908691 2982.141357,685.600220 
	C2959.559326,685.600220 2937.486328,685.600220 2914.892090,685.600220 
	C2914.892090,573.384338 2914.892090,461.264282 2914.892090,348.535400 
	C2936.975098,348.535400 2958.800781,348.535400 2981.548340,348.535400 
	C2981.548340,389.874756 2981.548340,431.342133 2981.548340,475.155548 
	C2984.565918,472.135956 2986.190918,470.890747 2987.341309,469.301819 
	C3004.518799,445.575439 3028.454834,435.172241 3056.999268,434.711670 
	C3071.691406,434.474609 3086.236572,436.458038 3099.971436,442.363373 
	C3125.480469,453.331177 3137.572266,474.104797 3141.741211,500.294922 
	C3143.304932,510.117828 3144.180664,520.153015 3144.229004,530.096985 
	C3144.473145,580.410522 3144.343262,630.725891 3144.334229,681.040588 
	C3144.333984,682.350952 3144.217041,683.661377 3144.122070,685.652710 
	C3122.259033,685.652710 3100.499023,685.652710 3078.051025,685.652710 
	C3077.921875,682.856140 3077.684082,679.969849 3077.670410,677.082520 
	C3077.474121,635.145752 3077.510498,593.206299 3076.994873,551.273621 
	C3076.860840,540.348328 3076.019287,529.234192 3073.763916,518.574646 
	C3069.393799,497.919403 3057.523682,488.586151 3036.419922,488.160553 
	C3029.831299,488.027710 3023.067627,488.751343 3016.637695,490.204315 
	C3003.841309,493.095978 2994.799561,500.872803 2989.415527,513.016235 
	C2984.595947,523.885437 2982.963135,535.364868 2982.410156,547.023621 
	C2981.968750,556.334229 2982.205078,565.677002 2982.141113,576.004517 
z"/>
<path fill="#F2F3F3" opacity="1.000000" stroke="none" 
	d="
M2504.677246,535.259644 
	C2508.372803,533.465881 2511.474854,532.191711 2514.281006,530.442932 
	C2519.397705,527.254089 2522.023926,522.592773 2522.593018,516.444885 
	C2524.428223,496.620514 2515.604492,484.105743 2495.794434,481.381989 
	C2485.727295,479.997833 2475.137207,480.151276 2465.064453,481.584015 
	C2448.410400,483.952911 2438.451416,494.249481 2435.818848,511.154022 
	C2435.617920,512.444763 2435.300049,513.717407 2434.902832,515.648193 
	C2412.722168,515.648193 2390.613281,515.648193 2367.835938,515.648193 
	C2368.270996,497.913513 2374.000000,482.534454 2385.511963,469.224274 
	C2400.371826,452.043182 2419.847900,443.238220 2441.503418,438.814728 
	C2472.617188,432.459259 2503.795898,433.179291 2534.674805,440.284790 
	C2542.991699,442.198578 2551.272217,445.515503 2558.728271,449.690399 
	C2579.567627,461.359070 2590.425537,479.157410 2590.296631,503.572754 
	C2590.074463,545.550903 2590.201172,587.532288 2590.456787,629.510620 
	C2590.525635,640.816711 2591.124756,652.167542 2592.355469,663.401978 
	C2593.177734,670.906555 2595.546631,678.241699 2597.292725,685.958374 
	C2575.165771,685.958374 2552.926025,685.958374 2530.074463,685.958374 
	C2528.483643,678.970642 2526.944824,672.212158 2525.286133,664.926575 
	C2524.315918,665.425232 2523.094971,665.761292 2522.264160,666.522888 
	C2505.051270,682.300110 2484.072021,689.187439 2461.465820,691.576538 
	C2446.212891,693.188538 2430.893799,693.066345 2415.718018,689.843933 
	C2381.338135,682.543701 2360.430176,656.919434 2359.830078,621.762146 
	C2359.478760,601.165771 2364.520996,582.882935 2380.174072,568.545532 
	C2389.212402,560.267029 2399.876221,554.613586 2411.692139,552.068115 
	C2429.877441,548.150452 2448.281494,545.239380 2466.607178,541.981873 
	C2479.041992,539.771423 2491.501465,537.699158 2504.677246,535.259644 
M2427.754395,611.689819 
	C2425.565186,632.104309 2435.065674,644.553467 2457.547852,647.216370 
	C2465.084473,648.109070 2472.924072,648.138245 2480.444336,647.165039 
	C2504.631348,644.034912 2519.909668,627.723328 2521.894775,603.293762 
	C2522.648926,594.014160 2522.583008,584.663818 2522.743408,575.343201 
	C2522.778809,573.280823 2522.189941,571.207764 2521.803711,568.557861 
	C2508.984375,574.694885 2496.227783,576.567810 2483.405518,578.560059 
	C2471.944580,580.340698 2460.448730,582.603027 2449.377441,585.989258 
	C2437.857910,589.512573 2430.067871,597.505310 2427.754395,611.689819 
z"/>
<path fill="#F2F3F3" opacity="1.000000" stroke="none" 
	d="
M2258.562012,443.379272 
	C2295.319580,459.417358 2315.557617,488.162354 2325.556885,524.999512 
	C2330.377441,542.757507 2332.053955,560.939758 2330.175537,580.071594 
	C2271.626221,580.071594 2213.443848,580.071594 2155.400879,580.071594 
	C2151.408936,601.763245 2163.508301,627.161682 2182.332031,635.798828 
	C2200.688965,644.221924 2219.751709,644.743835 2238.673584,637.554443 
	C2251.154053,632.812439 2259.383057,624.740601 2267.555420,610.764893 
	C2286.585205,610.764893 2305.808594,610.764893 2326.045654,610.764893 
	C2316.833984,639.449219 2302.858643,664.276794 2275.518311,677.671448 
	C2231.835693,699.072632 2187.217773,699.073669 2144.205566,675.889038 
	C2111.812012,658.428040 2095.263916,628.626221 2088.831299,593.317993 
	C2082.897705,560.749268 2086.181885,529.057556 2101.505859,499.097687 
	C2122.251953,458.537231 2166.961426,431.660278 2219.007080,434.850372 
	C2232.315186,435.666077 2245.468750,437.690674 2258.562012,443.379272 
M2179.941895,492.588776 
	C2163.106689,502.605103 2155.552002,517.873535 2154.005615,537.086487 
	C2190.536865,537.086487 2226.260010,537.086487 2262.408447,537.086487 
	C2261.131348,525.593933 2257.354980,515.738647 2251.859131,506.522247 
	C2245.951660,496.615906 2237.444092,490.042145 2226.050049,487.595734 
	C2210.688232,484.297333 2195.635010,484.604492 2179.941895,492.588776 
z"/>
<path fill="#F2F3F3" opacity="1.000000" stroke="none" 
	d="
M3934.221191,678.264038 
	C3896.793945,696.285645 3858.994141,697.204285 3820.948486,684.093933 
	C3791.421875,673.919128 3770.095947,653.662354 3758.143555,624.890991 
	C3738.978516,578.758179 3739.403564,532.678528 3766.613281,489.944946 
	C3793.171631,448.234283 3833.480713,431.694641 3882.265625,435.341034 
	C3927.864746,438.749390 3958.922363,462.905823 3977.649414,503.767242 
	C3985.210938,520.266602 3988.853516,537.897400 3989.926270,555.980469 
	C3990.376953,563.578613 3990.001221,571.225708 3990.001221,579.969849 
	C3931.145752,579.969849 3872.706787,579.969849 3813.436279,579.969849 
	C3814.355713,601.768127 3818.337402,620.901184 3837.081543,633.222595 
	C3856.419678,645.933960 3889.250732,645.127991 3908.316895,631.998230 
	C3916.136963,626.613098 3922.562988,619.984131 3926.540283,610.853394 
	C3945.816162,610.853394 3965.012207,610.853394 3985.380615,610.853394 
	C3976.136475,639.551575 3961.704102,663.315247 3934.221191,678.264038 
M3902.691895,496.211334 
	C3882.732666,482.014313 3861.426025,482.061859 3840.411865,492.366486 
	C3822.523193,501.138367 3814.846924,517.211792 3813.578613,537.049072 
	C3850.237549,537.049072 3885.906494,537.049072 3921.674805,537.049072 
	C3919.301025,519.944763 3914.119141,508.567413 3902.691895,496.211334 
z"/>
<path fill="#F3F4F4" opacity="1.000000" stroke="none" 
	d="
M1856.081055,410.337158 
	C1851.110596,410.337158 1847.131836,410.337158 1842.450562,410.337158 
	C1842.450562,389.640594 1842.450562,369.251892 1842.450562,348.391602 
	C1934.436157,348.391602 2026.226440,348.391602 2118.606445,348.391602 
	C2118.606445,368.731598 2118.606445,388.897186 2118.606445,409.962891 
	C2085.371826,409.962891 2052.247314,409.962891 2018.112549,409.962891 
	C2018.112549,502.219116 2018.112549,593.591370 2018.112549,685.648193 
	C1992.698364,685.648193 1968.294800,685.648193 1942.839844,685.648193 
	C1942.839844,594.023193 1942.839844,502.605804 1942.839844,410.337158 
	C1913.559692,410.337158 1885.316162,410.337158 1856.081055,410.337158 
z"/>
<path fill="#F2F3F3" opacity="1.000000" stroke="none" 
	d="
M2702.850830,681.319702 
	C2653.345947,656.417419 2634.290283,614.769714 2634.869873,562.362183 
	C2635.126465,539.156494 2639.929932,516.700134 2651.097656,496.045929 
	C2670.278809,460.571411 2700.546387,441.308777 2740.086914,435.935913 
	C2763.240479,432.789734 2786.099365,434.667969 2808.106445,442.357635 
	C2841.330322,453.966553 2864.648682,475.483826 2872.977051,510.888855 
	C2873.736572,514.118652 2874.125488,517.442200 2874.562744,520.738647 
	C2874.818359,522.667053 2874.829346,524.627930 2874.985840,527.136536 
	C2853.078369,527.136536 2831.568604,527.136536 2809.516113,527.136536 
	C2808.294922,523.097778 2807.243652,518.964294 2805.802490,514.971436 
	C2800.557861,500.441986 2790.675293,491.211914 2775.368896,487.576233 
	C2747.474609,480.950439 2724.210205,490.795624 2712.432129,516.775879 
	C2698.093750,548.404663 2698.106445,581.047974 2712.345215,612.658569 
	C2724.715820,640.122070 2756.425781,650.421875 2783.456299,637.163879 
	C2797.969238,630.045593 2805.307373,617.223938 2809.623535,602.310303 
	C2810.535889,599.158630 2811.186523,595.931396 2811.946045,592.787415 
	C2833.530518,592.787415 2854.446045,592.787415 2876.775635,592.787415 
	C2875.197266,600.095703 2874.094971,606.875793 2872.255127,613.449463 
	C2860.289795,656.202759 2831.668701,681.317017 2788.735352,689.766602 
	C2759.786133,695.463928 2731.043945,693.643738 2702.850830,681.319702 
z"/>
<path fill="#3EADF0" opacity="1.000000" stroke="none" 
	d="
M1430.329102,554.655151 
	C1433.949585,530.088135 1446.802490,514.098511 1470.123535,507.711823 
	C1499.184570,499.753235 1528.935791,518.393799 1535.425903,548.059082 
	C1543.095825,583.118103 1514.604980,616.662231 1479.568848,613.700500 
	C1450.473022,611.240967 1429.631958,586.967834 1430.312500,560.526978 
	C1430.355347,558.862671 1430.320435,557.196472 1430.329102,554.655151 
z"/>
<path fill="#040404" opacity="1.000000" stroke="none" 
	d="
M2427.830811,610.830505 
	C2430.067871,597.505310 2437.857910,589.512573 2449.377441,585.989258 
	C2460.448730,582.603027 2471.944580,580.340698 2483.405518,578.560059 
	C2496.227783,576.567810 2508.984375,574.694885 2521.803711,568.557861 
	C2522.189941,571.207764 2522.778809,573.280823 2522.743408,575.343201 
	C2522.583008,584.663818 2522.648926,594.014160 2521.894775,603.293762 
	C2519.909668,627.723328 2504.631348,644.034912 2480.444336,647.165039 
	C2472.924072,648.138245 2465.084473,648.109070 2457.547852,647.216370 
	C2435.065674,644.553467 2425.565186,632.104309 2427.830811,610.830505 
z"/>
<path fill="#050606" opacity="1.000000" stroke="none" 
	d="
M2180.607910,492.245422 
	C2195.635010,484.604492 2210.688232,484.297333 2226.050049,487.595734 
	C2237.444092,490.042145 2245.951660,496.615906 2251.859131,506.522247 
	C2257.354980,515.738647 2261.131348,525.593933 2262.408447,537.086487 
	C2226.260010,537.086487 2190.536865,537.086487 2154.005615,537.086487 
	C2155.552002,517.873535 2163.106689,502.605103 2180.607910,492.245422 
z"/>
<path fill="#060606" opacity="1.000000" stroke="none" 
	d="
M3903.220703,496.702209 
	C3914.119141,508.567413 3919.301025,519.944763 3921.674805,537.049072 
	C3885.906494,537.049072 3850.237549,537.049072 3813.578613,537.049072 
	C3814.846924,517.211792 3822.523193,501.138367 3840.411865,492.366486 
	C3861.426025,482.061859 3882.732666,482.014313 3903.220703,496.702209 
z"/>
</svg>